<svg width="27" height="27" viewBox="0 0 27 27" fill="none" xmlns="http://www.w3.org/2000/svg">
<g clip-path="url(#clip0_259_359)">
<path d="M24.914 -0.461853C24.5091 -0.805293 23.8729 -0.854433 23.2152 -0.590373H23.2141C22.5224 -0.312813 3.63319 7.78934 2.86423 8.12037C2.72437 8.16897 1.50289 8.62473 1.62871 9.63993C1.74103 10.5552 2.72275 10.9343 2.84263 10.978L7.64485 12.6223C7.96345 13.6829 9.13795 17.5957 9.39769 18.4317C9.55969 18.9528 9.82375 19.6375 10.2865 19.7784C10.6926 19.935 11.0965 19.7919 11.3579 19.5867L14.2939 16.8635L19.0334 20.5598L19.1463 20.6273C19.4681 20.7699 19.7765 20.8411 20.0708 20.8411C20.2981 20.8411 20.5163 20.7985 20.7247 20.7132C21.4348 20.4216 21.7189 19.7449 21.7486 19.6683L25.2888 1.26669C25.5048 0.283887 25.2046 -0.216153 24.914 -0.461853ZM11.8801 13.2801L10.2601 17.6001L8.64007 12.2001L21.0601 3.02007L11.8801 13.2801Z" fill="black"/>
</g>
<defs>
<clipPath id="clip0_259_359">
<rect width="27" height="27" fill="white"/>
</clipPath>
</defs>
</svg>
