<svg width="28" height="28" viewBox="0 0 28 28" fill="none" xmlns="http://www.w3.org/2000/svg">
<g clip-path="url(#clip0_259_361)">
<path d="M22.2564 1.74901C20.0561 -0.452492 17.1301 -1.66583 14.0127 -1.66699C7.58908 -1.66699 2.36125 3.55851 2.35892 9.98217C2.35775 12.0355 2.89442 14.0398 3.91409 15.8062L2.33325 21.6663L8.43842 20.2232C10.1406 21.1518 12.0562 21.6407 14.0069 21.6418H14.0116C20.4341 21.6418 25.6619 16.4152 25.6654 9.99268C25.6677 6.87884 24.4567 3.95167 22.2564 1.74901ZM19.7143 14.146C19.4716 14.8262 18.2828 15.4818 17.7484 15.5297C17.2141 15.5787 16.7136 15.7712 14.2543 14.8017C11.2944 13.635 9.42542 10.6005 9.28075 10.4068C9.13492 10.212 8.09192 8.82834 8.09192 7.39567C8.09192 5.96301 8.84442 5.25834 9.11158 4.96784C9.37875 4.67617 9.69375 4.60384 9.88858 4.60384C10.0823 4.60384 10.2771 4.60384 10.4463 4.61084C10.6539 4.61901 10.8838 4.62951 11.1019 5.11367C11.3609 5.69001 11.9268 7.12967 11.9991 7.27551C12.0714 7.42134 12.1204 7.59168 12.0236 7.78534C11.9268 7.97901 11.8778 8.10034 11.7331 8.27067C11.5873 8.44101 11.4274 8.64984 11.2968 8.78051C11.1509 8.92517 10.9993 9.08384 11.1684 9.37434C11.3388 9.66601 11.9221 10.6192 12.7878 11.3903C13.9008 12.382 14.8376 12.6888 15.1293 12.8358C15.4209 12.9817 15.5901 12.9572 15.7604 12.7623C15.9307 12.5687 16.4884 11.913 16.6821 11.6213C16.8757 11.3297 17.0706 11.3787 17.3378 11.4755C17.6049 11.5723 19.0364 12.277 19.3269 12.4228C19.6186 12.5687 19.8123 12.641 19.8846 12.7623C19.9569 12.8825 19.9569 13.4658 19.7143 14.146Z" fill="black"/>
</g>
<defs>
<clipPath id="clip0_259_361">
<rect width="28" height="28" fill="white"/>
</clipPath>
</defs>
</svg>
